<svg id="Layer_1" data-name="Layer 1" xmlns="http://www.w3.org/2000/svg" viewBox="0 0 839.41 241.48"><defs><style>.cls-1{fill:#fff;}</style></defs><path class="cls-1" d="M75.11,132.6a10.36,10.36,0,0,1-10.5,10.46,10.75,10.75,0,0,1-9.48-5.58,10.08,10.08,0,0,1-1.22-4.76,10.41,10.41,0,0,1,1.22-4.85,11.12,11.12,0,0,1,9.39-6A10.21,10.21,0,0,1,72,125,11,11,0,0,1,75.11,132.6Z"/><path class="cls-1" d="M162.49,223.78c-13.56,9.69-28.79,14.92-45.39,16.56a192.64,192.64,0,0,1-21.73,1.13c-11.43-.17-22.92-.24-34.21-2.36a68,68,0,0,1-31.92-15.65,86.3,86.3,0,0,1-16.27-18A75.57,75.57,0,0,1,1.06,175.44a77.9,77.9,0,0,1-.58-21.29,81.31,81.31,0,0,1,6.48-24,68.88,68.88,0,0,1,6.78-11.59c10-14,22.7-24.42,39.09-30a80.44,80.44,0,0,1,26.78-4.36c7.92,0,15.84-.57,23.79-.3,9.75.36,19.38,1.51,28.16,6.09,17.77,9.26,29,23.72,31.62,43.67,2.43,18.29-2.78,34.58-16,47.84-10.64,10.66-23.51,16.63-38.62,16.9-16.73.28-33.46.06-50.16,0-2.82,0-3.78-1-3.79-3.88q0-23.7,0-47.39s8.67,8.69,19.58,0c-.1,8.27.15,17.61.11,26.91,0,3.72,1.12,4.88,4.87,4.94,1.69,0,3.38-.09,5.08-.06,3.34,0,6.7.12,10,.16.84,0,1.72,0,2.68,0,1.78,0,3.58,0,5.36-.07,14-.87,21.71-7.33,24.16-9.83l.56-.6c6-7.17,9-14.26,9.83-21-.74-41.76-41.15-43.43-41.15-43.43H70a52.45,52.45,0,0,0-13.18,3.58C37.52,118,32.52,131.57,32.52,131.57a91.64,91.64,0,0,0-1.15,55.17,41.18,41.18,0,0,0,4,8.12,81.55,81.55,0,0,0,10.37,13.28,73.78,73.78,0,0,0,17,10.85c2.07.58,4.17,1.11,6.36,1.53a67.2,67.2,0,0,0,13.22.77c7.87-.09,15.76,0,23.62-.11,15.24-.19,29.72-3.43,42.62-11.91C165,198.4,177.33,184,182.69,164.83c7.74-27.6,2.78-52.9-16.11-74.94a78.88,78.88,0,0,0-40.9-25.69C117.57,62.1,109.27,62,101,62c-14.3.06-28.6,0-42.91,0-2.77,0-3.47-.72-3.49-3.62V31.34q0-13.26,0-26.54c0-3.5,1-4.57,4.51-4.62s7.14,0,10.72,0c3.15,0,4,.85,4,4,0,11.21,0,22.42,0,33.62,0,4,.65,4.64,4.66,4.64q22.81,0,45.63,0c5.88,0,10.43-3.05,12-7.93,2.19-6.77-3.42-14.47-10.75-14.62-5.52-.1-11,0-16.55,0q-11.25-.11-22.53-.25c-2.34,0-3.39-1.13-3.42-3.51,0-4.11,0-8.23,0-12.35C82.92,1.3,84,.2,86.34.18c12.27,0,24.52-.21,36.77,0,2.64-.25,23-1.54,33.61,14.22a21.12,21.12,0,0,1,3.59,7.09c.33.88.63,1.8.9,2.77l-.33-.21C163.23,38.21,152,53,152,53.05c15.25,8.39,28.29,19.31,37.84,34,8.66,13.31,14.28,27.91,15.64,43.71C208.82,169.83,194.41,201,162.49,223.78Z"/><path class="cls-1" d="M256.11,119.72v-3.18c9.32-1,10.23-1.48,10.23-11.14V60.3c0-9.77-.91-10.23-10.23-11.25V45.87h30.45v3.18c-9.43,1-10.34,1.48-10.34,11.25v45.1c0,9.77.91,10.11,10.34,11.14v3.18Z"/><path class="cls-1" d="M336.1,45.87c16,0,26.13,3.18,33.17,9.88,5.57,5.46,9.66,13.41,9.66,24.32,0,13.29-5.45,24.08-14.2,30.67s-19.66,9-33.63,9H304.51v-3.18c9.77-.91,10.23-1.71,10.23-11V60.18c0-9.77-1.36-10.22-10.23-11.13V45.87Zm-11.48,58.74c0,8.52,3.64,10.9,12.16,10.9,20.45,0,30.9-14,30.9-33.85,0-12.39-4.2-21.82-13.18-27.27-5.22-3.3-11.81-4.55-19.42-4.55-5.12,0-7.84.69-9,1.59-1,.69-1.48,1.94-1.48,6.37Z"/><path class="cls-1" d="M455.39,101.65c-.68,3-3.75,14.66-4.88,18.07H395.29v-3.18c10.57-.8,11.36-1.82,11.36-11.14V60.52c0-10.11-1.25-10.68-9.77-11.47V45.87h34.77c10.68,0,15.11-.12,16.47-.23.12,2.84.57,11.36,1,17.38l-3.4.57A38.07,38.07,0,0,0,442.33,55c-1.82-3.75-4.43-4.55-11.25-4.55H420.29c-3.53,0-3.75.34-3.75,3.64V79.16h12.61c8.52,0,9.09-1.71,10.45-9.43h3.52v23.4H439.6c-1.48-8.18-2.39-9.31-10.57-9.31H416.54v22.61c0,7.95,2.5,8.63,8.18,8.74h10.56c6.93,0,8.07-1,10.57-4,2.16-2.39,4.54-7,6.14-10.45Z"/><path class="cls-1" d="M548.33,49.05c-7.27.79-9.66,1.93-10,7.16-.11,3.63-.34,8.4-.34,19v45.56h-4.32L485.05,61.32v28.4c0,10.23.34,15.34.56,18.64.23,5.79,3.07,7.5,11.25,8.18v3.18H469.25v-3.18c7.05-.57,9.77-2.27,10.23-7.84.34-3.64.57-8.75.57-19.09v-29c0-3.18-.23-5-2.28-7.5-2.15-2.84-4.54-3.52-10.11-4.09V45.87h17L532.88,103V75.18c0-10.57-.23-15.45-.57-18.86-.34-5.11-2.95-6.7-12-7.27V45.87h28.06Z"/><path class="cls-1" d="M602.75,79.73c10.91,1.81,19.77,7,19.77,18.06,0,7.73-4.32,13.86-11,17.5-5.91,3.29-11.7,4.43-19.66,4.43h-28v-3.18c9.66-.91,10.23-1.93,10.23-10.91V60.07c0-9.43-1-10.23-10.23-11V45.87h29.77c8.52,0,13.86,1.47,17.5,4a14.87,14.87,0,0,1,6.7,12.73C617.86,73.25,609.11,78.13,602.75,79.73Zm-13.07-1.37c12.5,0,17.61-5,17.61-14.31,0-8-4.88-14.09-15.79-14.09-3.18,0-5.23.34-6.36,1.13-.91.69-1.25,1.94-1.25,5.57v21.7Zm-5.79,27c0,8.18,1.93,10.23,10,10.23,8.86,0,17.49-4.77,17.49-16.7,0-11.59-8.18-16.59-22-16.59h-5.45Z"/><path class="cls-1" d="M705.68,120.63c-1.47,0-2.72-.12-4.2-.23-8.29-.57-12.73-2.73-17.72-9.77-4.21-5.8-8.3-12.95-11.93-18.75-2.28-3.63-3.75-4.31-9.55-4.31h-4V105.4c0,9.66,1.25,10.23,10.34,11.14v3.18H638.31v-3.18c9.43-1,10.22-1.48,10.22-11.14V60.07c0-9.66-1.24-10-10.22-11V45.87h29c8.3,0,13.86,1,18.18,3.86,4.66,3,7.73,8.07,7.73,15,0,9.77-6.25,15.9-14.66,19.54,2.05,3.52,6.93,11.13,10.34,16.25a104.4,104.4,0,0,0,9,11.7,16.49,16.49,0,0,0,8.3,5.23ZM663.76,83.7c5.91,0,9.66-.91,12.5-3.29,4.43-3.3,6.25-7.84,6.25-14,0-12.15-8.07-16.59-16.82-16.59-3.29,0-5.23.46-6,1.14-1,.8-1.36,1.93-1.36,4.89V83.7Z"/><path class="cls-1" d="M716.59,119.72v-3.18c9.32-1,10.23-1.48,10.23-11.14V60.3c0-9.77-.91-10.23-10.23-11.25V45.87H747v3.18c-9.43,1-10.34,1.48-10.34,11.25v45.1c0,9.77.91,10.11,10.34,11.14v3.18Z"/><path class="cls-1" d="M796.58,45.87c16,0,26.13,3.18,33.17,9.88,5.57,5.46,9.66,13.41,9.66,24.32,0,13.29-5.46,24.08-14.2,30.67s-19.66,9-33.63,9H765v-3.18c9.77-.91,10.22-1.71,10.22-11V60.18c0-9.77-1.36-10.22-10.22-11.13V45.87ZM785.1,104.61c0,8.52,3.64,10.9,12.16,10.9,20.45,0,30.9-14,30.9-33.85,0-12.39-4.2-21.82-13.18-27.27-5.23-3.3-11.81-4.55-19.43-4.55-5.11,0-7.84.69-9,1.59-1,.69-1.48,1.94-1.48,6.37Z"/><rect class="cls-1" x="254" y="148.71" width="585.4" height="4.16"/><path class="cls-1" d="M252.2,185.44l.19-.16q5.78.18,6.66.18t6.69-.18l.19.16v1.17l-.19.16c-1.07,0-1.9.08-2.48.14a3,3,0,0,0-1.27.35,1.64,1.64,0,0,0-.53,1.2,22,22,0,0,0-.12,2.62l0,5.36v7.41c0,2.44,0,4.24.15,5.38a9.72,9.72,0,0,0,.65,2.89,5.49,5.49,0,0,0,1.53,2,7.9,7.9,0,0,0,2.94,1.38,15.93,15.93,0,0,0,4.33.54,15.76,15.76,0,0,0,4.79-.71,7.26,7.26,0,0,0,3.39-2.06,7.09,7.09,0,0,0,1.53-3.56,40.16,40.16,0,0,0,.36-6.12v-7.18c0-1.21,0-2.88-.06-5a16.13,16.13,0,0,0-.27-3.66,1.48,1.48,0,0,0-.82-.72,13.15,13.15,0,0,0-3.3-.29l-.19-.19v-1.09l.19-.21c2.3.12,4.14.18,5.53.18,1.18,0,3-.06,5.5-.18l.21.18v1.12l-.21.19a23.05,23.05,0,0,0-2.86.17,1.93,1.93,0,0,0-.93.39,1.59,1.59,0,0,0-.4.79,23,23,0,0,0-.17,3.08l-.07,5.24v7.09a52.74,52.74,0,0,1-.33,6.69,8.74,8.74,0,0,1-1.46,4,10.46,10.46,0,0,1-2.68,2.63,11.64,11.64,0,0,1-4,1.63,21.4,21.4,0,0,1-5,.58,20.88,20.88,0,0,1-5.76-.73,10.94,10.94,0,0,1-3.95-1.91,7.49,7.49,0,0,1-2.08-2.5,9.64,9.64,0,0,1-.82-3.1c-.12-1.19-.18-3-.18-5.45v-8.95l0-4.54a33.75,33.75,0,0,0-.13-3.43,2.19,2.19,0,0,0-.32-1,1.56,1.56,0,0,0-.85-.42,19.47,19.47,0,0,0-3.1-.26l-.19-.16Z"/><path class="cls-1" d="M299,195.72l.44.28c-.15,1.77-.24,3.34-.25,4.71q3.17-2.9,4.42-3.82c.83-.63,2.26-.94,4.3-.94a10.84,10.84,0,0,1,3.47.53,8.22,8.22,0,0,1,2.89,1.72,8.66,8.66,0,0,1,2.1,3,10.64,10.64,0,0,1,.77,4.18,11.39,11.39,0,0,1-.54,3.41,15.07,15.07,0,0,1-1.41,3.19,9.31,9.31,0,0,1-1.4,1.95,16.28,16.28,0,0,1-2.15,1.43c-1,.59-2,1.23-2.92,1.91a14.41,14.41,0,0,1-1.4.93,5.63,5.63,0,0,1-1.33.42,9,9,0,0,1-2,.21,10.49,10.49,0,0,1-4.82-1.23v5q0,.51.09,3.3a29.36,29.36,0,0,0,.2,3.25,1.39,1.39,0,0,0,.31.68,1,1,0,0,0,.52.27c.2,0,1,.1,2.51.19l.21.19v1l-.18.21c-1.95-.12-3.81-.19-5.6-.19s-3.65.07-5.59.19l-.21-.21v-1l.21-.19c1.49-.09,2.34-.16,2.54-.21a1,1,0,0,0,.52-.29,1.3,1.3,0,0,0,.31-.71c.05-.32.11-1.37.18-3.12s.11-3.08.11-4V204.11c0-.81,0-1.74-.11-2.81a16.31,16.31,0,0,0-.17-1.85.73.73,0,0,0-.34-.42,2.76,2.76,0,0,0-1.2-.16l-2,0-.21-.18v-1l.19-.18A30,30,0,0,0,299,195.72Zm.19,17.88a10,10,0,0,0,2.66,1.9,7.66,7.66,0,0,0,3.49.8,7.13,7.13,0,0,0,4-1.14,7.39,7.39,0,0,0,2.69-3.35,12,12,0,0,0,1-4.88,9.71,9.71,0,0,0-.85-4,6.59,6.59,0,0,0-2.64-2.94,7.28,7.28,0,0,0-3.79-1.07,6.83,6.83,0,0,0-2.4.43,7.67,7.67,0,0,0-2.18,1.27,6.25,6.25,0,0,0-1.45,1.6,2.9,2.9,0,0,0-.47,1.26c0,.33,0,.7,0,1.1Z"/><path class="cls-1" d="M336.54,186.61v-1l.19-.21a29.64,29.64,0,0,0,7.51-1.73l.44.28q-.26,2.68-.26,10.75V210c0,1.58,0,3,.08,4.12a6.23,6.23,0,0,0,.3,2.09,1.57,1.57,0,0,0,.68.53,12.64,12.64,0,0,0,2.72.4l.21.18v.89l-.21.21c-1.68-.11-3-.16-3.92-.16s-2,0-3.59.16l-.25-.26c0-1.52.07-2.58.07-3.19,0-.08,0-.37,0-.89-.85.63-1.71,1.32-2.56,2.08-1.26,1.12-2.09,1.82-2.47,2.1a7.16,7.16,0,0,1-3.06.53,9.28,9.28,0,0,1-5.46-1.58,8.8,8.8,0,0,1-3.21-4.05,13.74,13.74,0,0,1-.95-5,13.31,13.31,0,0,1,1-5.07,7.14,7.14,0,0,1,2.82-3.56c1.22-.74,2.54-1.52,4-2.32a8.77,8.77,0,0,1,4.28-1.2,11.58,11.58,0,0,1,5.64,1.47l-.09-5.2c0-1.8-.08-3.05-.14-3.76a3.34,3.34,0,0,0-.24-1.26.81.81,0,0,0-.47-.29,21.85,21.85,0,0,0-2.84-.09Zm4,14.8a10.44,10.44,0,0,0-3.2-2.5,8.08,8.08,0,0,0-3.54-.86,6.68,6.68,0,0,0-3.64,1.06,6,6,0,0,0-2.44,3.15,13.29,13.29,0,0,0-.75,4.53,9.87,9.87,0,0,0,2.07,6.55,6.45,6.45,0,0,0,5.18,2.47,5.81,5.81,0,0,0,3-.78,6.43,6.43,0,0,0,2.17-2.11,6,6,0,0,0,1-2.65c.09-.89.14-2.51.14-4.88Z"/><path class="cls-1" d="M356.72,202.41l-.9-.23-.19-.24v-2.89a13.59,13.59,0,0,1,8.06-3.07,9,9,0,0,1,4.46,1,6.3,6.3,0,0,1,2.56,2.5,7.44,7.44,0,0,1,.79,3.51l-.11,4.69v6.94a4.36,4.36,0,0,0,.19,1.73,1.1,1.1,0,0,0,.46.41,4.19,4.19,0,0,0,.95.17l1.33.12.19.21v.93l-.19.19c-1.13-.1-2.19-.14-3.17-.14s-2,0-3.35.14l-.35-.33.09-3.75-5.08,4a7.17,7.17,0,0,1-2.8.54,7,7,0,0,1-3.2-.68,4.76,4.76,0,0,1-2-1.89,5.63,5.63,0,0,1-.72-2.93,6.81,6.81,0,0,1,2.15-5.35q2.15-1.94,11.7-3.28,0-3.45-1.54-4.86a5.85,5.85,0,0,0-4.12-1.41,7.09,7.09,0,0,0-2.46.4,3,3,0,0,0-1.27.64q-.16.24-1.26,2.85Zm10.82,3.68q-6.53,1.09-8.13,2.36a4.61,4.61,0,0,0-1.61,3.89c0,2.42,1.2,3.64,3.61,3.64q3.1,0,6.13-3.59Z"/><path class="cls-1" d="M378.49,199.92v-.61l.16-.23a34.43,34.43,0,0,0,3.55-1.52c0-4.05-.05-6.42-.14-7.08a20.12,20.12,0,0,0,3.94-1.8l.55.47c-.15,1-.34,3.82-.55,8.53l2.51,0a39.14,39.14,0,0,0,3.94-.14l.17.17-.45,2-.18.21-2.64,0-3.35,0-.14,9.49a37.69,37.69,0,0,0,.15,4.3,2.46,2.46,0,0,0,.84,1.59,3.1,3.1,0,0,0,2,.57,5.47,5.47,0,0,0,2.89-.82l.56.84c-.38.26-1.27,1-2.68,2.33a5.93,5.93,0,0,1-2.48.56q-5.24,0-5.24-5.08c0-1.24,0-2.3.09-3.17,0-.27,0-.54,0-.82V200h-1q-1.05,0-2.4.09Z"/><path class="cls-1" d="M415.36,214.79l-.75,1.68A13.72,13.72,0,0,1,406.9,219a13.07,13.07,0,0,1-5.3-1.1,8.89,8.89,0,0,1-4.08-3.7,12,12,0,0,1-1.58-6.3,15.07,15.07,0,0,1,.61-4.41,10.9,10.9,0,0,1,1.27-2.93,10,10,0,0,1,2.25-2.12,14.6,14.6,0,0,1,3.36-1.86,10.21,10.21,0,0,1,3.82-.7,9.26,9.26,0,0,1,4.93,1.31,7.21,7.21,0,0,1,3,3.37,11.06,11.06,0,0,1,.87,4.36c0,.48,0,1-.07,1.4l-.26.26a26.67,26.67,0,0,1-4.27.46q-2.67.12-3.54.12h-7.48q0,4.81,2.42,7.11a8.11,8.11,0,0,0,5.83,2.28,8.81,8.81,0,0,0,3.14-.56,19.31,19.31,0,0,0,3.18-1.56Zm-14.94-9.54c.28.05,1.35.1,3.23.17s3.26.09,4.16.09a35.38,35.38,0,0,0,3.94-.12c0-.37,0-.66,0-.86q0-3.61-1.47-5.37a4.92,4.92,0,0,0-4-1.76,5.17,5.17,0,0,0-4.32,2A9.43,9.43,0,0,0,400.42,205.25Z"/><path class="cls-1" d="M434.16,199.92v-.61l.16-.23a34.43,34.43,0,0,0,3.55-1.52c0-4.05-.05-6.42-.14-7.08a20.12,20.12,0,0,0,3.94-1.8l.55.47c-.15,1-.34,3.82-.55,8.53l2.51,0a39.14,39.14,0,0,0,3.94-.14l.17.17-.45,2-.18.21-2.64,0-3.35,0-.14,9.49a37.69,37.69,0,0,0,.15,4.3,2.46,2.46,0,0,0,.84,1.59,3.1,3.1,0,0,0,2,.57,5.47,5.47,0,0,0,2.89-.82l.56.84c-.38.26-1.27,1-2.68,2.33a5.93,5.93,0,0,1-2.48.56q-5.24,0-5.24-5.08c0-1.24,0-2.3.09-3.17,0-.27,0-.54,0-.82V200h-1q-1,0-2.4.09Z"/><path class="cls-1" d="M458.35,183.69l.44.28q-.26,2.68-.25,10.75v5.76c1.3-1.08,2.51-2.14,3.63-3.2a4.28,4.28,0,0,1,.93-.65,7.68,7.68,0,0,1,1.44-.44,8.63,8.63,0,0,1,2-.24,8.44,8.44,0,0,1,3.44.73,6.74,6.74,0,0,1,2.51,1.71,5.52,5.52,0,0,1,1.18,2.34,14.27,14.27,0,0,1,.33,3.33v4.11c0,.26,0,2.2.11,5.8.05,1.48.22,2.36.5,2.63s1.25.42,2.88.42l.19.19v1l-.19.19c-2-.13-3.31-.19-4-.19-.35,0-1.49.06-3.4.19l-.28-.26q.3-3,.3-7.9v-3.05q0-2.76-.12-4a5,5,0,0,0-.78-2.21,4.54,4.54,0,0,0-1.74-1.54,5.83,5.83,0,0,0-2.62-.54,6.15,6.15,0,0,0-4.8,1.88,4.68,4.68,0,0,0-1.32,1.72,10.13,10.13,0,0,0-.22,2.64v4.15q0,.51.09,3.3a29.36,29.36,0,0,0,.2,3.25,1.39,1.39,0,0,0,.31.68,1,1,0,0,0,.52.27c.2,0,1,.1,2.51.19l.21.19v1l-.18.21c-1.95-.13-3.82-.19-5.62-.19s-3.65.06-5.6.19l-.21-.21v-1L451,217c1.51-.09,2.36-.16,2.56-.21a1,1,0,0,0,.51-.29,1.16,1.16,0,0,0,.3-.67c.06-.31.12-1.31.19-3s.1-3,.1-3.86V196.91l-.09-4.94c-.05-1.73-.1-2.92-.15-3.59a3.39,3.39,0,0,0-.22-1.19.86.86,0,0,0-.49-.28,21.77,21.77,0,0,0-2.82-.09l-.21-.21v-1l.18-.21A29.64,29.64,0,0,0,458.35,183.69Z"/><path class="cls-1" d="M500.58,214.79l-.75,1.68a13.72,13.72,0,0,1-7.71,2.49,13.07,13.07,0,0,1-5.3-1.1,8.89,8.89,0,0,1-4.08-3.7,12,12,0,0,1-1.58-6.3,15.07,15.07,0,0,1,.61-4.41,10.9,10.9,0,0,1,1.27-2.93,10,10,0,0,1,2.25-2.12,14.4,14.4,0,0,1,3.36-1.86,10.21,10.21,0,0,1,3.82-.7,9.26,9.26,0,0,1,4.93,1.31,7.21,7.21,0,0,1,3,3.37,11.06,11.06,0,0,1,.87,4.36c0,.48,0,1-.07,1.4l-.26.26a26.67,26.67,0,0,1-4.27.46q-2.67.12-3.54.12h-7.48q0,4.81,2.42,7.11a8.11,8.11,0,0,0,5.83,2.28A8.81,8.81,0,0,0,497,216a19.31,19.31,0,0,0,3.18-1.56Zm-14.94-9.54c.28.05,1.35.1,3.23.17s3.26.09,4.16.09a35.38,35.38,0,0,0,3.94-.12c0-.37,0-.66,0-.86q0-3.61-1.47-5.37a4.92,4.92,0,0,0-4-1.76,5.17,5.17,0,0,0-4.32,2A9.43,9.43,0,0,0,485.64,205.25Z"/><path class="cls-1" d="M531.73,217l.19.19v1l-.19.21c-.48,0-1.39,0-2.72-.09s-2.47-.1-3.76-.1c-1.67,0-3.55.06-5.61.19l-.19-.21v-1l.19-.19c1.5-.09,2.36-.16,2.56-.21a.94.94,0,0,0,.51-.29,1.23,1.23,0,0,0,.29-.67c.06-.31.12-1.31.19-3s.11-3,.11-3.86v-9l-3,.16-.21-.19v-.58l.16-.23,3.06-1.57v-1.39a22.24,22.24,0,0,1,.21-3.54,6.93,6.93,0,0,1,.78-2.21,15,15,0,0,1,2-2.56c1-1,1.78-1.88,2.49-2.54a7,7,0,0,1,1.87-1.33,4.64,4.64,0,0,1,1.86-.34,6,6,0,0,1,1.91.35l0,3.82-.54.21a4.39,4.39,0,0,0-3-1.16,4.12,4.12,0,0,0-2.09.5,2.62,2.62,0,0,0-1.22,1.63,15.46,15.46,0,0,0-.32,3.74v4.82h2.49c1.29,0,2.51,0,3.66-.14l.21.26-.42,2.05-.21.24-.91,0-3,0h-1.79v9.39c0,.5,0,1.64.1,3.42s.14,2.82.2,3.13a1.24,1.24,0,0,0,.32.68,1.35,1.35,0,0,0,.72.3C528.86,216.92,529.93,217,531.73,217Z"/><path class="cls-1" d="M544,196l.44.3q-.26,3.06-.26,7.76v5.44a12.6,12.6,0,0,0,.46,4.14,3.35,3.35,0,0,0,1.57,1.79,5.45,5.45,0,0,0,2.66.62,7.18,7.18,0,0,0,3.1-.67,6.47,6.47,0,0,0,2.34-1.87,7.45,7.45,0,0,0,1.08-1.64,11,11,0,0,0,.19-2.35l.07-2.61v-2.52c0-.62,0-1.47-.09-2.54s-.12-1.73-.15-2a.73.73,0,0,0-.37-.55,2.7,2.7,0,0,0-1.21-.17l-2,0-.21-.18v-1l.19-.18A30.46,30.46,0,0,0,559.4,196l.44.3q-.26,3.06-.26,7.76v4.11c0,.23,0,2.13.12,5.71a8.79,8.79,0,0,0,.24,2.41,1.27,1.27,0,0,0,.55.61,7.07,7.07,0,0,0,2.08.17h.65l.21.19v.93l-.19.21c-2.19-.13-3.66-.19-4.4-.19-1,0-2.05.06-3.29.17l-.21-.19c.09-1.59.16-2.93.21-4a36,36,0,0,0-3.36,3.05,5.5,5.5,0,0,1-2.07,1.21,8.93,8.93,0,0,1-3.08.49,8.36,8.36,0,0,1-4.07-.82,4.71,4.71,0,0,1-2.06-2.29,14.6,14.6,0,0,1-.6-5l0-1.84v-4.55c0-.62,0-1.47-.09-2.54s-.12-1.73-.16-2a.71.71,0,0,0-.36-.55,2.7,2.7,0,0,0-1.21-.17l-2,0-.21-.18v-1l.19-.18A30.46,30.46,0,0,0,544,196Z"/><path class="cls-1" d="M567.6,199.92v-.61l.16-.23a33.2,33.2,0,0,0,3.54-1.52c0-4.05,0-6.42-.14-7.08a19.85,19.85,0,0,0,3.94-1.8l.56.47q-.23,1.47-.56,8.53l2.52,0a39.28,39.28,0,0,0,3.94-.14l.16.17-.44,2-.19.21-2.63,0-3.36,0-.14,9.49a37.69,37.69,0,0,0,.15,4.3,2.46,2.46,0,0,0,.84,1.59,3.14,3.14,0,0,0,2,.57,5.45,5.45,0,0,0,2.89-.82l.56.84c-.37.26-1.26,1-2.68,2.33a5.89,5.89,0,0,1-2.47.56c-3.5,0-5.24-1.69-5.24-5.08,0-1.24,0-2.3.09-3.17,0-.27,0-.54,0-.82V200h-.95q-1.05,0-2.4.09Z"/><path class="cls-1" d="M591.92,196l.45.3q-.25,3.06-.26,7.76v5.44a12.6,12.6,0,0,0,.46,4.14,3.35,3.35,0,0,0,1.57,1.79,5.45,5.45,0,0,0,2.66.62,7.22,7.22,0,0,0,3.1-.67,6.47,6.47,0,0,0,2.34-1.87,7.45,7.45,0,0,0,1.08-1.64,11,11,0,0,0,.19-2.35l.07-2.61v-2.52c0-.62,0-1.47-.09-2.54s-.12-1.73-.16-2a.69.69,0,0,0-.36-.55,2.7,2.7,0,0,0-1.21-.17l-2,0-.21-.18v-1l.19-.18a30.46,30.46,0,0,0,7.51-1.75l.44.3q-.26,3.06-.26,7.76v4.11c0,.23,0,2.13.12,5.71a8.79,8.79,0,0,0,.24,2.41,1.27,1.27,0,0,0,.55.61,7.07,7.07,0,0,0,2.08.17h.65l.21.19v.93l-.19.21c-2.19-.13-3.66-.19-4.4-.19-1,0-2.05.06-3.29.17l-.21-.19c.09-1.59.16-2.93.21-4a36,36,0,0,0-3.36,3.05,5.5,5.5,0,0,1-2.07,1.21,8.93,8.93,0,0,1-3.08.49,8.36,8.36,0,0,1-4.07-.82,4.71,4.71,0,0,1-2.06-2.29,14.6,14.6,0,0,1-.6-5l0-1.84v-4.55c0-.62,0-1.47-.09-2.54s-.12-1.73-.16-2a.71.71,0,0,0-.36-.55,2.7,2.7,0,0,0-1.21-.17l-2,0-.21-.18v-1l.19-.18A30.27,30.27,0,0,0,591.92,196Z"/><path class="cls-1" d="M623.37,196l.44.3c-.1.9-.17,2.51-.21,4.8l1.75-2.21a13.74,13.74,0,0,1,1.52-1.69,4.83,4.83,0,0,1,1.55-.92,5.18,5.18,0,0,1,1.82-.33,4.61,4.61,0,0,1,1.94.42l.16.33c-.25,2.07-.39,3.88-.42,5.45h-1a3.12,3.12,0,0,0-3-2.14,3.74,3.74,0,0,0-2.51.92,4.39,4.39,0,0,0-1.44,2.31,14.23,14.23,0,0,0-.36,3.51v2.58c0,.47,0,1.61.09,3.43a29.52,29.52,0,0,0,.2,3.15,1.15,1.15,0,0,0,.33.61,1.16,1.16,0,0,0,.58.27c.24.05,1.35.13,3.32.23l.21.19v1l-.21.21q-3.09-.19-6.48-.19c-1.78,0-3.65.06-5.59.19l-.21-.21v-1L616,217q2.26-.14,2.55-.21a.94.94,0,0,0,.51-.29,1.23,1.23,0,0,0,.31-.67c0-.31.11-1.31.18-3s.11-3,.11-3.86v-4.59c0-.62,0-1.47-.09-2.54s-.12-1.73-.16-2a.71.71,0,0,0-.36-.55,2.7,2.7,0,0,0-1.21-.17l-2,0-.21-.18v-1l.19-.18A30.46,30.46,0,0,0,623.37,196Z"/><path class="cls-1" d="M655.64,214.79l-.74,1.68a14.77,14.77,0,0,1-4.33,2,14.38,14.38,0,0,1-3.39.47,13.1,13.1,0,0,1-5.3-1.1,8.89,8.89,0,0,1-4.08-3.7,12,12,0,0,1-1.57-6.3,15.08,15.08,0,0,1,.6-4.41,11.23,11.23,0,0,1,1.27-2.93,10,10,0,0,1,2.25-2.12,14.6,14.6,0,0,1,3.36-1.86,10.21,10.21,0,0,1,3.82-.7,9.24,9.24,0,0,1,4.93,1.31,7.29,7.29,0,0,1,3,3.37,11.23,11.23,0,0,1,.86,4.36c0,.48,0,1-.07,1.4l-.26.26a26.67,26.67,0,0,1-4.26.46c-1.79.08-3,.12-3.55.12H640.7q0,4.81,2.43,7.11a8.08,8.08,0,0,0,5.82,2.28,8.81,8.81,0,0,0,3.14-.56,19.31,19.31,0,0,0,3.18-1.56Zm-14.94-9.54c.28.05,1.36.1,3.23.17s3.26.09,4.16.09a35.38,35.38,0,0,0,3.94-.12c0-.37,0-.66,0-.86q0-3.61-1.47-5.37a4.9,4.9,0,0,0-4-1.76,5.19,5.19,0,0,0-4.33,2A9.43,9.43,0,0,0,640.7,205.25Z"/><path class="cls-1" d="M682.06,196l.45.3q-.25,3.06-.26,7.76v5.27q0,.51.09,3.3a32.43,32.43,0,0,0,.2,3.25,1.39,1.39,0,0,0,.32.68,1,1,0,0,0,.51.27c.2,0,1,.1,2.52.19l.21.19v1l-.19.21c-1.94-.13-3.81-.19-5.62-.19s-3.65.06-5.59.19l-.21-.21v-1l.21-.19q2.26-.14,2.55-.21a.94.94,0,0,0,.51-.29,1.23,1.23,0,0,0,.31-.67c0-.31.11-1.31.18-3s.11-3,.11-3.86v-4.59c0-.62,0-1.47-.1-2.54s-.11-1.73-.15-2a.74.74,0,0,0-.36-.55,2.7,2.7,0,0,0-1.21-.17l-2,0-.21-.18v-1l.19-.18A30.27,30.27,0,0,0,682.06,196Zm-2-10.42a2.58,2.58,0,0,1,1.87.77,2.62,2.62,0,0,1,0,3.71,2.64,2.64,0,0,1-3.72,0,2.61,2.61,0,0,1,0-3.72A2.56,2.56,0,0,1,680.08,185.58Z"/><path class="cls-1" d="M697,196l.44.3c-.09,1-.15,2.41-.18,4.1q1.86-1.53,3.54-3.12a4.25,4.25,0,0,1,.92-.65,7.3,7.3,0,0,1,1.43-.44,8.86,8.86,0,0,1,2.06-.24,8.39,8.39,0,0,1,3.43.73,6.87,6.87,0,0,1,2.52,1.71,5.52,5.52,0,0,1,1.18,2.34,14.9,14.9,0,0,1,.32,3.33v4.11c0,.26,0,2.2.12,5.8,0,1.48.19,2.36.49,2.63s1.26.42,2.89.42l.19.19v1l-.19.19c-2-.13-3.31-.19-4-.19-.4,0-1.54.06-3.4.19l-.28-.26q.3-3,.3-7.9v-3.05c0-1.84,0-3.16-.13-4a4.77,4.77,0,0,0-.78-2.21,4.43,4.43,0,0,0-1.75-1.54,5.84,5.84,0,0,0-2.61-.54,7.8,7.8,0,0,0-2.07.24,6.65,6.65,0,0,0-1.94,1,7.38,7.38,0,0,0-1.58,1.43,3,3,0,0,0-.62,1.23,17.52,17.52,0,0,0-.1,2.44v4.05q0,.51.09,3.3a29.36,29.36,0,0,0,.2,3.25,1.39,1.39,0,0,0,.31.68,1,1,0,0,0,.52.27c.2,0,1,.1,2.51.19l.21.19v1l-.18.21c-2-.13-3.82-.19-5.62-.19s-3.65.06-5.6.19l-.21-.21v-1l.21-.19c1.51-.09,2.36-.16,2.56-.21a1,1,0,0,0,.51-.29,1.16,1.16,0,0,0,.3-.67c.06-.31.12-1.31.19-3s.1-3,.1-3.86v-4.59c0-.62,0-1.47-.09-2.54s-.11-1.73-.15-2a.74.74,0,0,0-.36-.55,2.73,2.73,0,0,0-1.21-.17l-2,0-.21-.18v-1l.18-.18A30.46,30.46,0,0,0,697,196Z"/><path class="cls-1" d="M734.63,211.36h1l.21.21a30.07,30.07,0,0,0,.23,3.36,5.05,5.05,0,0,0,2.49,1.78,9.6,9.6,0,0,0,3.5.69,5.72,5.72,0,0,0,3.95-1.33,4.11,4.11,0,0,0,1.48-3.17,2.86,2.86,0,0,0-.54-1.74,3.8,3.8,0,0,0-1.62-1.21,25.25,25.25,0,0,0-3.88-1.13c-1.6-.37-2.72-.66-3.35-.87a5.66,5.66,0,0,1-1.84-1.06,4.83,4.83,0,0,1-1.36-1.83,6,6,0,0,1-.46-2.39,5.93,5.93,0,0,1,2.48-5,10,10,0,0,1,6.19-1.88,14.85,14.85,0,0,1,3.4.43,18.76,18.76,0,0,1,2.8.83l.21.33a38.31,38.31,0,0,0-.24,4.89l-.21.21h-.93l-.21-.21a11.6,11.6,0,0,0-.25-2,3,3,0,0,0-.84-1.24,5.48,5.48,0,0,0-1.91-1.12,7.62,7.62,0,0,0-2.61-.45,6,6,0,0,0-2.39.42,3.54,3.54,0,0,0-1.56,1.27,3.77,3.77,0,0,0-.24,3.65,2.8,2.8,0,0,0,1.11,1.13,5.75,5.75,0,0,0,1.56.61l2.54.66a35.49,35.49,0,0,1,4.67,1.37,4.67,4.67,0,0,1,2.18,1.76,5.07,5.07,0,0,1,.77,2.86,7.08,7.08,0,0,1-2.65,5.52,10.05,10.05,0,0,1-6.83,2.31,25.11,25.11,0,0,1-3.65-.33q-2.18-.33-3.72-.72l-.12-.3.24-1.56a14.42,14.42,0,0,0,.14-1.46c0-.49,0-1.52,0-3.09Z"/><path class="cls-1" d="M755.35,199.92v-.61l.16-.23a33.49,33.49,0,0,0,3.55-1.52c0-4.05,0-6.42-.14-7.08a20.12,20.12,0,0,0,3.94-1.8l.56.47q-.24,1.47-.56,8.53l2.51,0a39.14,39.14,0,0,0,3.94-.14l.17.17-.45,2-.18.21-2.64,0-3.35,0-.14,9.49a37.69,37.69,0,0,0,.15,4.3,2.46,2.46,0,0,0,.84,1.59,3.12,3.12,0,0,0,2,.57,5.47,5.47,0,0,0,2.89-.82l.56.84c-.38.26-1.27,1-2.68,2.33a5.93,5.93,0,0,1-2.48.56q-5.24,0-5.24-5.08c0-1.24,0-2.3.09-3.17,0-.27,0-.54,0-.82V200h-1q-1.05,0-2.4.09Z"/><path class="cls-1" d="M772.66,230.87a25.44,25.44,0,0,0,1.19-3.59h.56a3.37,3.37,0,0,0,2.47,1.24,3.52,3.52,0,0,0,2.88-1.65,37.56,37.56,0,0,0,3.46-7.26q-.88-2.49-1.79-4.71l-3.71-9.18c-.39-.95-1-2.3-1.72-4.07a24.09,24.09,0,0,0-1.37-2.91,2.18,2.18,0,0,0-.57-.5,5.64,5.64,0,0,0-1.89-.45l-.18-.18v-.93l.21-.19c1.78.11,3.62.16,5.5.16,2.21,0,3.91-.05,5.1-.16l.19.19v.93l-.16.18c-.17,0-.65.06-1.44.11a2.63,2.63,0,0,0-1.47.37,1,1,0,0,0-.29.67,14.21,14.21,0,0,0,.73,2.57c.48,1.46.94,2.74,1.39,3.86l1.47,3.64c1,2.39,1.71,4.15,2.24,5.29l1.24-2.73q.64-1.48,1.86-4.52l1.94-4.94c.49-1.28.78-2.07.85-2.38a3.41,3.41,0,0,0,.1-.68.71.71,0,0,0-.37-.7,6.15,6.15,0,0,0-1.66-.32l-1-.14-.16-.19v-1l.19-.19c1.3.11,2.85.16,4.64.16a36.86,36.86,0,0,0,3.91-.16l.19.19v1l-.19.19a3.85,3.85,0,0,0-1.37.23,2.58,2.58,0,0,0-1,.75,18.15,18.15,0,0,0-1.68,3q-1.22,2.48-2.42,5.13l-2.29,5-5.38,12.58a39.05,39.05,0,0,1-1.74,3.5,6.64,6.64,0,0,1-2.54,2.69,6.51,6.51,0,0,1-3.18.83A5.42,5.42,0,0,1,772.66,230.87Z"/><path class="cls-1" d="M807.83,183.69l.44.28q-.25,2.68-.25,10.75v14.61q0,.51.09,3.3a29.36,29.36,0,0,0,.2,3.25,1.39,1.39,0,0,0,.31.68,1,1,0,0,0,.52.27c.2,0,1,.1,2.51.19l.21.19v1l-.18.21c-1.94-.13-3.82-.19-5.62-.19s-3.65.06-5.59.19l-.21-.21v-1l.21-.19q2.25-.14,2.55-.21a1,1,0,0,0,.51-.29,1.16,1.16,0,0,0,.3-.67c.06-.31.12-1.31.19-3s.11-3,.11-3.86V196.91L804,192c0-1.73-.09-2.92-.15-3.59a3.15,3.15,0,0,0-.22-1.19.83.83,0,0,0-.49-.28,21.66,21.66,0,0,0-2.82-.09l-.21-.21v-1l.19-.21A29.55,29.55,0,0,0,807.83,183.69Z"/><path class="cls-1" d="M835.38,214.79l-.75,1.68a14.73,14.73,0,0,1-4.32,2,14.51,14.51,0,0,1-3.39.47,13.12,13.12,0,0,1-5.31-1.1,8.89,8.89,0,0,1-4.08-3.7,12.07,12.07,0,0,1-1.57-6.3,14.74,14.74,0,0,1,.61-4.41,10.59,10.59,0,0,1,1.27-2.93,10,10,0,0,1,2.25-2.12,14.34,14.34,0,0,1,3.35-1.86,10.27,10.27,0,0,1,3.83-.7,9.29,9.29,0,0,1,4.93,1.31,7.21,7.21,0,0,1,3,3.37,11,11,0,0,1,.86,4.36,12.74,12.74,0,0,1-.07,1.4l-.25.26a26.67,26.67,0,0,1-4.27.46q-2.69.12-3.54.12h-7.48q0,4.81,2.42,7.11a8.11,8.11,0,0,0,5.83,2.28,8.72,8.72,0,0,0,3.13-.56,18.56,18.56,0,0,0,3.18-1.56Zm-14.94-9.54c.28.05,1.35.1,3.23.17s3.25.09,4.16.09a35,35,0,0,0,3.93-.12c0-.37,0-.66,0-.86q0-3.61-1.47-5.37a4.93,4.93,0,0,0-4-1.76,5.17,5.17,0,0,0-4.32,2C821,200.7,820.44,202.66,820.44,205.25Z"/></svg>