<svg xmlns="http://www.w3.org/2000/svg" xmlns:xlink="http://www.w3.org/1999/xlink" width="350" height="350" viewBox="0 0 350 350"><desc>Created with Fabric.js 1.7.22</desc><defs/><g style="stroke: none; stroke-width: 1; stroke-dasharray: none; stroke-linecap: butt; stroke-linejoin: miter; stroke-miterlimit: 10; fill: rgb(255,255,255); fill-rule: nonzero; opacity: 1;" transform="translate(-1.9444444444444287 -1.9444444444444287) scale(3.89 3.89)"><circle id="Layer_1" cx="45" cy="45" r="45" style="stroke: none; stroke-width: 1; stroke-dasharray: none; stroke-linecap: butt; stroke-linejoin: miter; stroke-miterlimit: 10; fill: rgb(255,255,255); fill-rule: nonzero; opacity: 1;" transform="matrix(1 0 0 1 0 0)"/></g><g id="icon" style="stroke: none; stroke-width: 1; stroke-dasharray: none; stroke-linecap: butt; stroke-linejoin: miter; stroke-miterlimit: 10; fill: none; fill-rule: nonzero; opacity: 1;" transform="translate(-1.9444444444444855 -1.9444444444444855) scale(3.89 3.89)"><path d="M45 0C20.147.0.0 20.147.0 45s20.147 45 45 45 45-20.147 45-45C90 20.147 69.853.0 45 0zM31.187 69.956H20.822V36.617h10.365V69.956zM26.005 32.062c-3.32.0-6.005-2.692-6.005-6.007.0-3.318 2.685-6.011 6.005-6.011 3.313.0 6.005 2.692 6.005 6.011.0 3.315-2.693 6.007-6.005 6.007zM70 69.956H59.643V53.743c0-3.867-.067-8.84-5.385-8.84-5.392.0-6.215 4.215-6.215 8.562v16.491H37.686V36.617h9.939v4.559h.141c1.383-2.622 4.764-5.385 9.804-5.385C68.063 35.791 70 42.694 70 51.671V69.956z" style="stroke: none; stroke-width: 1; stroke-dasharray: none; stroke-linecap: butt; stroke-linejoin: miter; stroke-miterlimit: 10; fill: rgb(10,99,188); fill-rule: nonzero; opacity: 1;" transform="matrix(1 0 0 1 0 0)" stroke-linecap="round"/></g></svg>