<svg width="24" height="24" viewBox="0 0 24 24" fill="none" xmlns="http://www.w3.org/2000/svg">
<path d="M17.5034 0H6.49658C2.91431 0 0 2.91431 0 6.49658V17.5036C0 21.0857 2.91431 24 6.49658 24H17.5036C21.0857 24 24 21.0857 24 17.5036V6.49658C24 2.91431 21.0857 0 17.5034 0V0ZM12 18.5623C8.38147 18.5623 5.43768 15.6185 5.43768 12C5.43768 8.38147 8.38147 5.43768 12 5.43768C15.6185 5.43768 18.5623 8.38147 18.5623 12C18.5623 15.6185 15.6185 18.5623 12 18.5623ZM18.7192 6.98529C17.6499 6.98529 16.7802 6.11554 16.7802 5.0462C16.7802 3.97687 17.6499 3.10693 18.7192 3.10693C19.7886 3.10693 20.6585 3.97687 20.6585 5.0462C20.6585 6.11554 19.7886 6.98529 18.7192 6.98529Z" fill="white"/>
<path d="M12.0001 6.84473C9.15753 6.84473 6.84473 9.15735 6.84473 12.0001C6.84473 14.8426 9.15753 17.1554 12.0001 17.1554C14.8428 17.1554 17.1554 14.8426 17.1554 12.0001C17.1554 9.15735 14.8428 6.84473 12.0001 6.84473Z" fill="white"/>
<path d="M18.7191 4.51416C18.4258 4.51416 18.187 4.75293 18.187 5.04626C18.187 5.3396 18.4258 5.57837 18.7191 5.57837C19.0126 5.57837 19.2514 5.33978 19.2514 5.04626C19.2514 4.75275 19.0126 4.51416 18.7191 4.51416Z" fill="white"/>
</svg>
