<svg width="80" height="80" viewBox="0 0 80 80" fill="none" xmlns="http://www.w3.org/2000/svg">
<path d="M73.75 37.5H51.25C50.9185 37.5 50.6005 37.6317 50.3661 37.8661C50.1317 38.1005 50 38.4185 50 38.75V47.5H28.75C28.4185 47.5 28.1005 47.6317 27.8661 47.8661C27.6317 48.1005 27.5 48.4185 27.5 48.75V57.5H6.25C5.91848 57.5 5.60054 57.6317 5.36612 57.8661C5.1317 58.1005 5 58.4185 5 58.75V76.25C5 76.5815 5.1317 76.8995 5.36612 77.1339C5.60054 77.3683 5.91848 77.5 6.25 77.5H73.75C74.0815 77.5 74.3995 77.3683 74.6339 77.1339C74.8683 76.8995 75 76.5815 75 76.25V38.75C75 38.4185 74.8683 38.1005 74.6339 37.8661C74.3995 37.6317 74.0815 37.5 73.75 37.5ZM30 50H50V75H30V50ZM7.5 60H27.5V75H7.5V60ZM72.5 75H52.5V40H72.5V75Z" fill="#333333"/>
<path d="M74.9347 10.9926C74.8618 10.7747 74.7302 10.5811 74.5543 10.4331C74.3785 10.2851 74.1653 10.1884 73.9381 10.1537L67.6881 9.19868L64.881 3.21884C64.7801 3.00392 64.6201 2.82217 64.4197 2.69486C64.2193 2.56755 63.9868 2.49994 63.7494 2.49994C63.512 2.49994 63.2795 2.56755 63.0791 2.69486C62.8787 2.82217 62.7187 3.00392 62.6178 3.21884L59.8119 9.19868L53.5619 10.1537C53.3346 10.1883 53.1212 10.2849 52.9453 10.433C52.7693 10.581 52.6376 10.7747 52.5646 10.9927C52.4916 11.2108 52.4802 11.4448 52.5316 11.6689C52.583 11.893 52.6953 12.0986 52.856 12.2631L57.4155 16.9362L56.3374 23.5495C56.3001 23.7807 56.3285 24.0177 56.4193 24.2335C56.5102 24.4494 56.6599 24.6353 56.8513 24.7703C57.0427 24.9052 57.2681 24.9836 57.502 24.9966C57.7358 25.0096 57.9686 24.9567 58.1738 24.8438L63.7494 21.7618L69.325 24.8438C69.5303 24.9573 69.7634 25.0108 69.9977 24.998C70.2319 24.9853 70.4579 24.9068 70.6497 24.7717C70.8414 24.6366 70.9913 24.4503 71.0822 24.234C71.173 24.0177 71.2012 23.7802 71.1635 23.5487L70.0853 16.9354L74.6449 12.2623C74.8052 12.0977 74.9171 11.8922 74.9682 11.6682C75.0193 11.4442 75.0077 11.2104 74.9347 10.9926ZM67.8547 15.6407C67.7181 15.7807 67.6162 15.9509 67.5573 16.1375C67.4984 16.324 67.4842 16.5218 67.5156 16.7149L68.2813 21.4102L64.3541 19.2398C64.169 19.1375 63.9609 19.0838 63.7494 19.0838C63.5379 19.0838 63.3298 19.1375 63.1447 19.2398L59.2172 21.4107L59.9828 16.7154C60.0143 16.5223 60.0001 16.3245 59.9412 16.1379C59.8823 15.9514 59.7804 15.7812 59.6438 15.6412L56.3431 12.2576L60.8483 11.5701C61.0512 11.5391 61.2433 11.4586 61.4077 11.3357C61.5721 11.2128 61.7038 11.0514 61.791 10.8656L63.7494 6.69196L65.708 10.8648C65.7952 11.0506 65.9268 11.212 66.0912 11.3349C66.2556 11.4578 66.4478 11.5383 66.6506 11.5693L71.1558 12.2568L67.8547 15.6407Z" fill="#333333"/>
<path d="M6.25 41.2499H20C20.2321 41.2499 20.4597 41.1853 20.6571 41.0632C20.8546 40.9412 21.0142 40.7666 21.118 40.559L25.7725 31.2499H42.5C42.712 31.2499 42.9205 31.196 43.106 31.0932C43.2914 30.9905 43.4476 30.8422 43.56 30.6624L49.81 20.6624C49.9857 20.3813 50.0425 20.0419 49.968 19.7189C49.8934 19.3958 49.6936 19.1157 49.4125 18.9399C49.1314 18.7642 48.792 18.7074 48.4689 18.782C48.1459 18.8565 47.8657 19.0563 47.69 19.3374L41.8072 28.7499H25C24.7679 28.7499 24.5403 28.8146 24.3429 28.9366C24.1454 29.0587 23.9858 29.2333 23.882 29.4409L19.2275 38.7499H6.25C5.91848 38.7499 5.60054 38.8816 5.36612 39.1161C5.1317 39.3505 5 39.6684 5 39.9999C5 40.3315 5.1317 40.6494 5.36612 40.8838C5.60054 41.1182 5.91848 41.2499 6.25 41.2499Z" fill="#333333"/>
</svg>
